<svg width="1108" height="193" viewBox="0 0 1108 193" fill="none" xmlns="http://www.w3.org/2000/svg">
<path d="M119.883 90.2402H98.1233V21.1202H88.7793V0.640228H129.227V21.1202H119.883V90.2402ZM153.087 0.640228V66.8162C153.087 69.3762 153.471 70.2722 155.135 70.2722H155.647C157.311 70.2722 157.695 69.3762 157.695 66.8162V0.640228H178.175V69.1202C178.175 86.0162 174.207 90.8802 158.847 90.8802H150.655C135.295 90.8802 131.327 86.0162 131.327 69.1202V0.640228H153.087ZM211.258 90.2402H189.498V21.1202H180.154V0.640228H220.602V21.1202H211.258V90.2402ZM253.008 90.2402H231.248V21.1202H221.904V0.640228H262.352V21.1202H253.008V90.2402ZM264.708 90.2402V0.640228H286.468V90.2402H264.708ZM330.343 90.2402H308.583V0.640228H330.343V33.5362H334.951V0.640228H356.711V90.2402H334.951V54.1442H330.343V90.2402ZM388.213 90.2402L387.445 79.7442H379.381L378.613 90.2402H359.029L369.525 0.640228H399.605L410.101 90.2402H388.213ZM383.349 16.1282C382.709 29.9522 381.941 44.4162 380.789 61.1842H386.037C384.757 44.4162 383.861 29.9522 383.349 16.1282ZM438.183 90.2402L433.703 65.4082C432.551 58.8802 431.655 52.6082 430.887 45.6962C431.015 52.7362 431.143 58.8802 431.143 65.4082V90.2402H412.455V0.640228H438.055L440.743 20.8642C441.639 27.1362 442.663 33.6642 443.431 40.4482C443.303 33.5362 443.175 27.2642 443.175 20.8642V0.640228H461.863V90.2402H438.183ZM491.933 90.2402L487.453 65.4082C486.301 58.8802 485.405 52.6082 484.637 45.6962C484.765 52.7362 484.893 58.8802 484.893 65.4082V90.2402H466.205V0.640228H491.805L494.493 20.8642C495.389 27.1362 496.413 33.6642 497.181 40.4482C497.053 33.5362 496.925 27.2642 496.925 20.8642V0.640228H515.613V90.2402H491.933ZM519.571 69.1202V21.7602C519.571 4.86423 523.539 0.000228882 538.899 0.000228882H548.371C563.731 0.000228882 567.699 4.86423 567.699 21.7602V69.1202C567.699 86.0162 563.731 90.8802 548.371 90.8802H538.899C523.539 90.8802 519.571 86.0162 519.571 69.1202ZM545.939 66.8162V24.0642C545.939 21.5042 545.555 20.6082 543.891 20.6082H543.379C541.715 20.6082 541.331 21.5042 541.331 24.0642V66.8162C541.331 69.3762 541.715 70.2722 543.379 70.2722H543.891C545.555 70.2722 545.939 69.3762 545.939 66.8162ZM589.333 90.2402V0.640228H611.093V90.2402H589.333ZM641.308 90.2402L636.828 65.4082C635.676 58.8802 634.78 52.6082 634.012 45.6962C634.14 52.7362 634.268 58.8802 634.268 65.4082V90.2402H615.58V0.640228H641.18L643.868 20.8642C644.764 27.1362 645.788 33.6642 646.556 40.4482C646.428 33.5362 646.3 27.2642 646.3 20.8642V0.640228H664.988V90.2402H641.308ZM698.258 90.2402H676.498V21.1202H667.154V0.640228H707.602V21.1202H698.258V90.2402ZM731.718 21.2482V33.5362H743.11V54.1442H731.718V69.6322H746.694V90.2402H709.958V0.640228H746.694V21.2482H731.718ZM797.949 66.0482V74.4962C797.949 80.2562 798.461 85.7602 800.509 90.2402H778.109C776.445 87.2962 776.189 81.9202 776.189 76.2882V61.4402C776.189 58.2402 775.293 56.0642 772.605 56.0642H771.581V90.2402H749.821V0.640228H778.621C793.981 0.640228 797.949 5.50423 797.949 22.4002V25.9842C797.949 37.8882 796.029 43.5202 789.501 45.8242C796.029 48.3842 797.949 54.2722 797.949 66.0482ZM776.189 32.0002V24.7042C776.189 22.1442 775.805 21.2482 774.141 21.2482H771.581V35.4562H774.141C775.805 35.4562 776.189 34.5602 776.189 32.0002ZM828.838 90.2402L828.07 79.7442H820.006L819.238 90.2402H799.654L810.15 0.640228H840.23L850.726 90.2402H828.838ZM823.974 16.1282C823.334 29.9522 822.566 44.4162 821.414 61.1842H826.662C825.382 44.4162 824.486 29.9522 823.974 16.1282ZM876.135 57.2162V36.6082H898.919V69.1202C898.919 86.0162 894.951 90.8802 879.591 90.8802H871.399C856.039 90.8802 852.071 86.0162 852.071 69.1202V21.7602C852.071 4.86423 856.039 0.000228882 871.399 0.000228882H879.591C894.951 0.000228882 898.919 4.86423 898.919 21.7602V32.1282H878.439V24.0642C878.439 21.5042 878.055 20.6082 876.391 20.6082H875.879C874.215 20.6082 873.831 21.5042 873.831 24.0642V66.8162C873.831 69.3762 874.215 70.2722 875.879 70.2722H876.391C878.055 70.2722 878.439 69.3762 878.439 66.8162V57.2162H876.135ZM902.958 90.2402V0.640228H924.718V90.2402H902.958ZM958.133 90.2402H936.373V21.1202H927.029V0.640228H967.477V21.1202H958.133V90.2402ZM969.321 69.1202V21.7602C969.321 4.86423 973.289 0.000228882 988.649 0.000228882H998.121C1013.48 0.000228882 1017.45 4.86423 1017.45 21.7602V69.1202C1017.45 86.0162 1013.48 90.8802 998.121 90.8802H988.649C973.289 90.8802 969.321 86.0162 969.321 69.1202ZM995.689 66.8162V24.0642C995.689 21.5042 995.305 20.6082 993.641 20.6082H993.129C991.465 20.6082 991.081 21.5042 991.081 24.0642V66.8162C991.081 69.3762 991.465 70.2722 993.129 70.2722H993.641C995.305 70.2722 995.689 69.3762 995.689 66.8162ZM24.9598 168.816V167.28C24.9598 160.752 21.7598 158.448 13.6958 152.176C5.2478 145.52 -0.000203013 139.888 -0.000203013 125.936V123.76C-0.000203013 106.864 3.9678 102 19.3278 102H27.3918C42.7518 102 46.7198 106.864 46.7198 123.76V132.848H26.2398V126.064C26.2398 123.504 25.8558 122.608 24.1918 122.608H23.6798C22.0158 122.608 21.6318 123.504 21.6318 125.552V125.808C21.6318 132.336 24.9598 134.64 32.8958 140.912C41.4718 147.696 46.7198 153.2 46.7198 167.152V171.12C46.7198 188.016 42.7518 192.88 27.3918 192.88H19.3278C3.9678 192.88 -0.000203013 188.016 -0.000203013 171.12V159.472H20.3518V168.816C20.3518 171.376 20.7358 172.272 22.3998 172.272H23.0398C24.5758 172.272 24.9598 171.376 24.9598 168.816ZM72.1558 123.248V135.536H83.5478V156.144H72.1558V171.632H87.1318V192.24H50.3958V102.64H87.1318V123.248H72.1558ZM112.019 126.064V168.816C112.019 171.376 112.403 172.272 114.067 172.272H114.579C116.243 172.272 116.627 171.376 116.627 168.816V153.072H137.107V171.12C137.107 188.016 133.139 192.88 117.779 192.88H109.587C94.2268 192.88 90.2588 188.016 90.2588 171.12V123.76C90.2588 106.864 94.2268 102 109.587 102H117.779C133.139 102 137.107 106.864 137.107 123.76V137.968H116.627V126.064C116.627 123.504 116.243 122.608 114.579 122.608H114.067C112.403 122.608 112.019 123.504 112.019 126.064ZM140.509 171.12V123.76C140.509 106.864 144.477 102 159.837 102H169.309C184.669 102 188.637 106.864 188.637 123.76V171.12C188.637 188.016 184.669 192.88 169.309 192.88H159.837C144.477 192.88 140.509 188.016 140.509 171.12ZM166.877 168.816V126.064C166.877 123.504 166.493 122.608 164.829 122.608H164.317C162.653 122.608 162.269 123.504 162.269 126.064V168.816C162.269 171.376 162.653 172.272 164.317 172.272H164.829C166.493 172.272 166.877 171.376 166.877 168.816ZM218.371 192.24L213.891 167.408C212.739 160.88 211.843 154.608 211.075 147.696C211.203 154.736 211.331 160.88 211.331 167.408V192.24H192.643V102.64H218.243L220.931 122.864C221.827 129.136 222.851 135.664 223.619 142.448C223.491 135.536 223.363 129.264 223.363 122.864V102.64H242.051V192.24H218.371ZM246.521 192.24V102.64H275.321C290.681 102.64 294.649 107.504 294.649 124.4V170.48C294.649 187.376 290.681 192.24 275.321 192.24H246.521ZM268.281 171.632H270.841C272.505 171.632 272.889 170.736 272.889 168.176V126.704C272.889 124.144 272.505 123.248 270.841 123.248H268.281V171.632ZM298.259 171.12V123.76C298.259 106.864 302.227 102 317.587 102H327.059C342.419 102 346.387 106.864 346.387 123.76V171.12C346.387 188.016 342.419 192.88 327.059 192.88H317.587C302.227 192.88 298.259 188.016 298.259 171.12ZM324.627 168.816V126.064C324.627 123.504 324.243 122.608 322.579 122.608H322.067C320.403 122.608 320.019 123.504 320.019 126.064V168.816C320.019 171.376 320.403 172.272 322.067 172.272H322.579C324.243 172.272 324.627 171.376 324.627 168.816ZM396.821 192.24H375.061V123.12H365.717V102.64H406.165V123.12H396.821V192.24ZM456.137 168.048V176.496C456.137 182.256 456.649 187.76 458.697 192.24H436.297C434.633 189.296 434.377 183.92 434.377 178.288V163.44C434.377 160.24 433.481 158.064 430.793 158.064H429.769V192.24H408.009V102.64H436.809C452.169 102.64 456.137 107.504 456.137 124.4V127.984C456.137 139.888 454.217 145.52 447.689 147.824C454.217 150.384 456.137 156.272 456.137 168.048ZM434.377 134V126.704C434.377 124.144 433.993 123.248 432.329 123.248H429.769V137.456H432.329C433.993 137.456 434.377 136.56 434.377 134ZM481.906 123.248V135.536H493.298V156.144H481.906V171.632H496.882V192.24H460.146V102.64H496.882V123.248H481.906ZM526.121 192.24L521.641 167.408C520.489 160.88 519.593 154.608 518.825 147.696C518.953 154.736 519.081 160.88 519.081 167.408V192.24H500.393V102.64H525.993L528.681 122.864C529.577 129.136 530.601 135.664 531.369 142.448C531.241 135.536 531.113 129.264 531.113 122.864V102.64H549.801V192.24H526.121ZM554.271 192.24V102.64H583.071C598.431 102.64 602.399 107.504 602.399 124.4V170.48C602.399 187.376 598.431 192.24 583.071 192.24H554.271ZM576.031 171.632H578.591C580.255 171.632 580.639 170.736 580.639 168.176V126.704C580.639 124.144 580.255 123.248 578.591 123.248H576.031V171.632ZM624.021 192.24V102.64H652.821C668.181 102.64 672.149 107.504 672.149 124.4V141.68C672.149 158.448 668.181 163.44 652.821 163.44H645.781V192.24H624.021ZM645.781 142.832H648.341C650.005 142.832 650.389 141.936 650.389 139.376V126.704C650.389 124.144 650.005 123.248 648.341 123.248H645.781V142.832ZM723.262 168.048V176.496C723.262 182.256 723.774 187.76 725.822 192.24H703.422C701.758 189.296 701.502 183.92 701.502 178.288V163.44C701.502 160.24 700.606 158.064 697.918 158.064H696.894V192.24H675.134V102.64H703.934C719.294 102.64 723.262 107.504 723.262 124.4V127.984C723.262 139.888 721.342 145.52 714.814 147.824C721.342 150.384 723.262 156.272 723.262 168.048ZM701.502 134V126.704C701.502 124.144 701.118 123.248 699.454 123.248H696.894V137.456H699.454C701.118 137.456 701.502 136.56 701.502 134ZM749.031 123.248V135.536H760.423V156.144H749.031V171.632H764.007V192.24H727.271V102.64H764.007V123.248H749.031ZM791.71 168.816V167.28C791.71 160.752 788.51 158.448 780.446 152.176C771.998 145.52 766.75 139.888 766.75 125.936V123.76C766.75 106.864 770.718 102 786.078 102H794.142C809.502 102 813.47 106.864 813.47 123.76V132.848H792.99V126.064C792.99 123.504 792.606 122.608 790.942 122.608H790.43C788.766 122.608 788.382 123.504 788.382 125.552V125.808C788.382 132.336 791.71 134.64 799.646 140.912C808.222 147.696 813.47 153.2 813.47 167.152V171.12C813.47 188.016 809.502 192.88 794.142 192.88H786.078C770.718 192.88 766.75 188.016 766.75 171.12V159.472H787.102V168.816C787.102 171.376 787.486 172.272 789.15 172.272H789.79C791.326 172.272 791.71 171.376 791.71 168.816ZM845.821 192.24H824.061V123.12H814.717V102.64H855.165V123.12H845.821V192.24ZM880.026 192.24L879.258 181.744H871.194L870.426 192.24H850.842L861.338 102.64H891.418L901.914 192.24H880.026ZM875.162 118.128C874.522 131.952 873.754 146.416 872.602 163.184H877.85C876.57 146.416 875.674 131.952 875.162 118.128ZM903.884 192.24V102.64H932.684C948.044 102.64 952.012 107.504 952.012 124.4V125.424C952.012 137.2 950.092 142.832 943.82 145.264C950.092 147.568 952.012 153.328 952.012 164.976V170.48C952.012 187.376 948.044 192.24 932.684 192.24H903.884ZM928.204 155.504H925.644V171.632H928.204C929.868 171.632 930.252 170.736 930.252 168.176V158.96C930.252 156.4 929.868 155.504 928.204 155.504ZM930.252 131.44V126.704C930.252 124.144 929.868 123.248 928.204 123.248H925.644V134.896H928.204C929.868 134.896 930.252 134 930.252 131.44ZM955.771 192.24V102.64H977.531V192.24H955.771ZM982.146 192.24V102.64H1003.91V171.632H1016.19V192.24H982.146ZM1018.52 192.24V102.64H1040.28V192.24H1018.52ZM1073.7 192.24H1051.94V123.12H1042.59V102.64H1083.04V123.12H1073.7V192.24ZM1085.4 192.24V102.64H1107.16V192.24H1085.4Z" fill="#F3F3F3"/>
</svg>
